<?xml version="1.0" standalone="no"?>
<!DOCTYPE svg PUBLIC "-//W3C//DTD SVG 20010904//EN"
 "http://www.w3.org/TR/2001/REC-SVG-20010904/DTD/svg10.dtd">
<svg version="1.0" xmlns="http://www.w3.org/2000/svg"
 width="1800.000000pt" height="1800.000000pt" viewBox="0 0 1800.000000 1800.000000"
 preserveAspectRatio="xMidYMid meet">
<metadata>
Created by potrace 1.11, written by Peter Selinger 2001-2013
</metadata>
<g transform="translate(0.000000,1800.000000) scale(0.100000,-0.100000)"
fill="#000000" stroke="none">
<path d="M4811 9001 l0 -8999 22 3 c58 7 186 26 208 30 35 7 109 18 144 21 17
1 30 3 30 4 0 1 48 9 100 15 17 2 30 4 30 5 0 1 14 3 30 4 17 2 55 7 85 11 30
4 66 9 80 10 14 2 45 6 70 9 73 10 133 17 170 21 19 2 55 7 80 10 25 3 62 8
84 10 21 3 43 8 49 12 6 4 7 1 2 -7 -5 -8 -4 -11 2 -7 12 8 51 14 133 22 36 3
76 8 90 10 14 2 57 7 95 10 39 3 84 8 100 9 17 2 64 6 105 10 41 4 96 9 122
12 25 3 77 7 115 9 37 2 68 5 68 5 0 1 20 3 45 5 25 1 80 6 123 9 161 13 275
20 472 32 93 5 137 9 165 13 3 1 5 1619 5 3597 0 1989 4 3598 9 3601 10 7 180
12 584 17 167 2 306 6 309 9 2 3 18 1 34 -3 16 -5 29 -6 29 -2 0 4 132 8 293
10 320 3 514 8 622 17 39 3 97 8 130 10 109 9 180 16 205 20 14 2 52 7 85 11
33 3 69 8 80 11 11 2 38 6 60 8 22 2 76 10 119 19 44 9 82 14 84 11 3 -2 12 0
21 5 9 4 36 11 59 15 23 3 77 15 119 26 43 12 89 23 103 26 14 2 63 15 110 29
47 14 93 27 102 29 9 2 26 9 37 15 12 6 21 9 21 6 0 -4 99 30 142 48 9 4 22 9
30 10 7 2 27 9 43 16 17 7 32 14 35 15 15 5 64 27 125 56 39 18 72 33 75 34 3
1 20 8 38 14 17 7 32 16 32 20 0 4 6 8 13 8 6 0 52 23 101 52 49 28 91 51 93
51 8 0 238 159 267 185 16 14 32 25 35 25 3 0 20 13 37 28 18 15 54 46 80 68
106 90 344 341 344 362 0 6 4 12 9 14 23 8 241 323 241 347 0 6 3 11 8 11 4 0
12 10 18 23 6 12 43 83 81 157 38 74 82 164 97 200 15 36 31 74 36 85 9 19 64
171 95 260 23 68 90 307 102 365 8 40 9 44 16 65 3 11 8 36 11 55 4 19 10 52
15 72 5 20 6 39 4 42 -3 2 -1 11 3 18 5 7 9 18 10 25 1 6 5 29 8 50 3 21 8 49
10 63 7 37 17 111 21 145 2 17 6 50 9 75 9 69 16 129 22 190 3 30 7 71 8 90
17 172 21 451 20 1545 0 1043 -4 1440 -14 1440 -1 0 -3 27 -5 60 -5 78 -12
165 -22 240 -4 33 -8 68 -9 78 -1 9 -2 18 -3 20 -1 1 -4 20 -5 42 -2 22 -6 58
-10 80 -4 22 -11 72 -17 110 -6 39 -13 79 -16 90 -2 11 -6 29 -8 40 -5 32 -25
128 -31 155 -3 14 -7 34 -9 45 -3 11 -9 40 -16 65 -6 25 -12 52 -14 60 -2 8
-4 15 -5 15 -1 0 -3 7 -5 15 -5 28 -26 105 -34 130 -5 14 -14 45 -21 70 -13
46 -84 254 -103 300 -6 14 -11 27 -11 30 -4 20 -109 252 -158 348 -55 107
-131 242 -150 267 -5 6 -36 53 -70 105 -35 52 -65 97 -68 100 -3 3 -24 30 -48
60 -95 124 -146 183 -267 305 -58 58 -199 186 -240 217 -5 4 -26 21 -46 38
-20 16 -39 30 -43 30 -5 0 -15 8 -68 53 -12 9 -25 17 -29 17 -4 0 -14 6 -21
13 -24 23 -128 87 -128 80 0 -5 -5 0 -11 10 -5 9 -14 17 -19 17 -5 0 -38 17
-72 38 -35 21 -66 40 -70 41 -20 5 -43 15 -48 21 -5 7 -92 48 -180 87 -30 13
-64 28 -75 33 -42 19 -121 49 -135 52 -8 2 -17 5 -20 8 -10 11 -365 121 -430
134 -14 3 -34 7 -45 10 -11 3 -49 12 -85 20 -36 8 -65 15 -65 15 0 2 -45 11
-95 20 -36 6 -78 13 -95 16 -76 15 -91 17 -120 20 -16 2 -30 4 -30 5 0 1 -16
3 -35 5 -19 1 -57 6 -85 10 -27 4 -70 9 -95 10 -49 4 -155 14 -235 22 -27 3
-1081 7 -2342 10 l-2292 4 0 -9000z m4369 6465 c47 -3 96 -8 110 -11 14 -2 41
-6 60 -9 65 -10 229 -54 277 -76 26 -12 53 -23 58 -24 10 -2 65 -31 100 -53
11 -7 27 -15 35 -19 51 -24 240 -206 240 -231 0 -7 4 -13 9 -13 12 0 83 -119
122 -205 35 -77 91 -235 83 -235 -3 0 -2 -6 3 -12 4 -7 8 -19 10 -27 1 -7 6
-34 12 -60 6 -25 13 -57 15 -71 3 -14 7 -36 10 -50 10 -51 30 -260 30 -327 1
-29 3 -53 6 -53 8 0 5 -2424 -3 -2437 -5 -7 -5 -13 0 -13 4 0 7 -15 6 -32 -1
-18 -2 -33 -3 -33 -1 0 -3 -29 -5 -65 -2 -36 -6 -83 -9 -105 -3 -22 -8 -60
-11 -85 -13 -109 -23 -163 -41 -230 -8 -30 -17 -65 -20 -78 -19 -92 -149 -378
-176 -390 -5 -2 -8 -8 -8 -13 0 -23 -213 -239 -235 -239 -8 0 -15 -3 -17 -7
-4 -10 -54 -41 -90 -56 -16 -6 -28 -15 -28 -19 0 -4 -8 -8 -18 -8 -10 0 -22
-4 -28 -9 -9 -9 -168 -64 -189 -66 -5 -1 -21 -4 -35 -8 -69 -19 -175 -34 -305
-43 -49 -3 -344 -7 -655 -8 -311 -1 -571 -5 -577 -9 -6 -4 -14 -3 -17 2 -4 5
-19 7 -34 5 -43 -8 -211 -9 -219 -1 -10 10 -10 2977 0 2977 4 0 4 8 -1 18 -6
12 -9 2368 -3 2427 1 11 1397 12 1541 1z"/>
</g>
</svg>
